<?xml version="1.0" encoding="UTF-8"?>
<svg version="1.1" viewBox="0 0 24 24" xmlns="http://www.w3.org/2000/svg" xmlns:xlink="http://www.w3.org/1999/xlink">
    <!--Generated by IJSVG (https://github.com/curthard89/IJSVG)-->
    <g fill="#000000">
        <path d="M13.5,0h-13c-0.276,0 -0.5,0.224 -0.5,0.5c0,0.276 0.224,0.5 0.5,0.5h13c0.276,0 0.5,-0.224 0.5,-0.5c0,-0.276 -0.224,-0.5 -0.5,-0.5Z" transform="translate(0.5, 22)"></path>
        <path d="M22.632,0.633c-1.74,-0.633 -4.878,1.091 -5.234,1.292l-3.767,2.175l-6.349,-2.225c-0.137,-0.048 -0.289,-0.035 -0.415,0.039l-0.398,0.229c-0.138,0.08 -0.229,0.22 -0.247,0.378c-0.018,0.158 0.041,0.315 0.158,0.423l3.564,3.285l-3.053,1.762c-0.769,0.444 -1.267,0.35 -3.497,-0.17c-0.573,-0.134 -1.248,-0.292 -2.055,-0.466c-0.12,-0.025 -0.248,-0.006 -0.355,0.056l-0.727,0.419c-0.148,0.086 -0.243,0.242 -0.25,0.413c-0.007,0.171 0.075,0.334 0.216,0.432l2.501,1.724c-0.245,0.17 -0.347,0.475 -0.249,0.761c0.094,0.275 0.344,0.451 0.626,0.451c0.03,0 0.06,-0.002 0.09,-0.006c4.687,-0.619 6.923,-1.489 7.082,-1.559l10.296,-5.944c1.05,-0.606 2.8,-1.764 2.718,-2.706c-0.016,-0.201 -0.124,-0.569 -0.655,-0.763Zm-2.561,2.603l-10.23,5.913c-0.02,0.008 -1.877,0.726 -5.683,1.309c0,-0.001 0,-0.002 0,-0.003c0.007,-0.171 -0.075,-0.334 -0.216,-0.432l-2.285,-1.574c0.572,0.127 1.071,0.244 1.51,0.347c2.246,0.524 3.085,0.722 4.224,0.062l3.323,-1.918l0.373,0.344c0.204,0.188 0.52,0.175 0.707,-0.029c0.187,-0.203 0.174,-0.52 -0.029,-0.707l-3.575,-3.295l5.328,1.866c0.138,0.049 0.288,0.034 0.415,-0.039l3.96,-2.287c1.137,-0.641 3.262,-1.52 4.347,-1.228c-0.238,0.365 -1.189,1.104 -2.169,1.671Z" transform="translate(0.316, 4.736)"></path>
        <path d="M2.943,0.033c-0.27,-0.033 -0.522,0.167 -0.553,0.441l-0.233,2.084l-0.103,0.08l-1.158,-1.09c-0.201,-0.189 -0.518,-0.181 -0.707,0.021c-0.189,0.201 -0.18,0.518 0.021,0.707l1.47,1.383c0.096,0.09 0.219,0.136 0.343,0.136c0.108,0 0.216,-0.035 0.307,-0.105l0.607,-0.472c0.106,-0.082 0.175,-0.205 0.19,-0.339l0.257,-2.294c0.031,-0.274 -0.167,-0.521 -0.441,-0.552Z" transform="translate(13.431, 11.93)"></path>
    </g>
</svg>